<svg width="24" height="24" viewBox="0 0 24 24" fill="none" xmlns="http://www.w3.org/2000/svg">
<g clip-path="url(#clip0_109_19371)">
<path d="M3.99998 10.1857H9.19998C9.42118 10.1857 9.59998 10.0065 9.59998 9.78574C9.59998 9.56494 9.42118 9.38574 9.19998 9.38574H3.99998C3.77878 9.38574 3.59998 9.56494 3.59998 9.78574C3.59998 10.0065 3.77878 10.1857 3.99998 10.1857Z" fill="white"/>
<path d="M14.4 11.7856H3.99998C3.77878 11.7856 3.59998 11.9648 3.59998 12.1856C3.59998 12.4064 3.77878 12.5856 3.99998 12.5856H14.4C14.6212 12.5856 14.8 12.4064 14.8 12.1856C14.8 11.9648 14.6212 11.7856 14.4 11.7856Z" fill="white"/>
<path d="M14.4 14.186H3.99998C3.77878 14.186 3.59998 14.3652 3.59998 14.586C3.59998 14.8068 3.77878 14.986 3.99998 14.986H14.4C14.6212 14.986 14.8 14.8068 14.8 14.586C14.8 14.3652 14.6212 14.186 14.4 14.186Z" fill="white"/>
<path d="M21.6288 1.01384L7.972 0.98584C6.664 0.98584 5.6 2.04984 5.6 3.35784V5.40744L2.372 5.41424C1.064 5.41424 0 6.47824 0 7.78624V16.2426C0 17.5506 1.064 18.6142 2.372 18.6142H4.8V22.6142C4.8 22.7794 4.9016 22.9278 5.056 22.9874C5.1028 23.0054 5.1516 23.0142 5.2 23.0142C5.3104 23.0142 5.4188 22.9682 5.496 22.8834L9.3776 18.6134L16.028 18.5862C17.336 18.5862 18.4 17.5222 18.4 16.2146V16.1694L20.504 18.4838C20.5812 18.5686 20.6896 18.6146 20.8 18.6146C20.8484 18.6146 20.8972 18.6058 20.944 18.5878C21.0984 18.5282 21.2 18.3798 21.2 18.2146V14.2146H21.628C22.936 14.2146 24 13.1506 24 11.843V3.38584C24 2.07824 22.9364 1.01424 21.6288 1.01384ZM17.6 16.2142C17.6 17.081 16.8948 17.7858 16.0264 17.7858L9.1984 17.8138C9.0864 17.8142 8.9792 17.8618 8.904 17.9446L5.6 21.5794V18.2138C5.6 17.993 5.4212 17.8138 5.2 17.8138H2.372C1.5052 17.8138 0.8 17.1086 0.8 16.2422V7.78584C0.8 6.91904 1.5052 6.21384 2.3728 6.21384L6 6.20624C6.0004 6.20624 6.0004 6.20624 6.0008 6.20624L16.028 6.18544C16.8948 6.18544 17.6 6.89064 17.6 7.75744V15.1338V16.2142ZM23.2 11.8422C23.2 12.709 22.4948 13.4138 21.628 13.4138H20.8C20.5788 13.4138 20.4 13.593 20.4 13.8138V17.1794L18.4 14.9794V7.75784C18.4 6.44984 17.336 5.38584 16.0272 5.38584L6.4 5.40544V3.35744C6.4 2.49064 7.1052 1.78544 7.9712 1.78544L21.6276 1.81344C21.628 1.81344 21.628 1.81344 21.6284 1.81344C22.4952 1.81344 23.2004 2.51864 23.2004 3.38544L23.2 11.8422Z" fill="white"/>
</g>
<defs>
<clipPath id="clip0_109_19371">
<rect width="24" height="24" fill="white"/>
</clipPath>
</defs>
</svg>
