<svg width="24" height="24" viewBox="0 0 24 24" fill="none" xmlns="http://www.w3.org/2000/svg">
<g clip-path="url(#clip0_147_21778)">
<path d="M3.99998 10.1867H9.19998C9.42118 10.1867 9.59998 10.0075 9.59998 9.78672C9.59998 9.56592 9.42118 9.38672 9.19998 9.38672H3.99998C3.77878 9.38672 3.59998 9.56592 3.59998 9.78672C3.59998 10.0075 3.77878 10.1867 3.99998 10.1867Z" fill="black"/>
<path d="M14.4 11.7861H3.99998C3.77878 11.7861 3.59998 11.9653 3.59998 12.1861C3.59998 12.4069 3.77878 12.5861 3.99998 12.5861H14.4C14.6212 12.5861 14.8 12.4069 14.8 12.1861C14.8 11.9653 14.6212 11.7861 14.4 11.7861Z" fill="black"/>
<path d="M14.4 14.1865H3.99998C3.77878 14.1865 3.59998 14.3657 3.59998 14.5865C3.59998 14.8073 3.77878 14.9865 3.99998 14.9865H14.4C14.6212 14.9865 14.8 14.8073 14.8 14.5865C14.8 14.3657 14.6212 14.1865 14.4 14.1865Z" fill="black"/>
<path d="M21.6288 1.01433L7.972 0.986328C6.664 0.986328 5.6 2.05033 5.6 3.35833V5.40793L2.372 5.41473C1.064 5.41473 0 6.47873 0 7.78673V16.2431C0 17.5511 1.064 18.6147 2.372 18.6147H4.8V22.6147C4.8 22.7799 4.9016 22.9283 5.056 22.9879C5.1028 23.0059 5.1516 23.0147 5.2 23.0147C5.3104 23.0147 5.4188 22.9687 5.496 22.8839L9.3776 18.6139L16.028 18.5867C17.336 18.5867 18.4 17.5227 18.4 16.2151V16.1699L20.504 18.4843C20.5812 18.5691 20.6896 18.6151 20.8 18.6151C20.8484 18.6151 20.8972 18.6063 20.944 18.5883C21.0984 18.5287 21.2 18.3803 21.2 18.2151V14.2151H21.628C22.936 14.2151 24 13.1511 24 11.8435V3.38633C24 2.07873 22.9364 1.01473 21.6288 1.01433ZM17.6 16.2147C17.6 17.0815 16.8948 17.7863 16.0264 17.7863L9.1984 17.8143C9.0864 17.8147 8.9792 17.8623 8.904 17.9451L5.6 21.5799V18.2143C5.6 17.9935 5.4212 17.8143 5.2 17.8143H2.372C1.5052 17.8143 0.8 17.1091 0.8 16.2427V7.78633C0.8 6.91953 1.5052 6.21433 2.3728 6.21433L6 6.20673C6.0004 6.20673 6.0004 6.20673 6.0008 6.20673L16.028 6.18593C16.8948 6.18593 17.6 6.89113 17.6 7.75793V15.1343V16.2147ZM23.2 11.8427C23.2 12.7095 22.4948 13.4143 21.628 13.4143H20.8C20.5788 13.4143 20.4 13.5935 20.4 13.8143V17.1799L18.4 14.9799V7.75833C18.4 6.45033 17.336 5.38633 16.0272 5.38633L6.4 5.40593V3.35793C6.4 2.49113 7.1052 1.78593 7.9712 1.78593L21.6276 1.81393C21.628 1.81393 21.628 1.81393 21.6284 1.81393C22.4952 1.81393 23.2004 2.51913 23.2004 3.38593L23.2 11.8427Z" fill="black"/>
</g>
<defs>
<clipPath id="clip0_147_21778">
<rect width="24" height="24" fill="white"/>
</clipPath>
</defs>
</svg>
