<svg width="14" height="15" viewBox="0 0 14 15" fill="none" xmlns="http://www.w3.org/2000/svg">
<path d="M11.6251 1.44531H4.24274C3.45682 1.44531 2.81746 2.0866 2.81746 2.87489V3.31751H2.37011C1.58419 3.31751 0.944824 3.95879 0.944824 4.74752V12.1256C0.944824 12.9139 1.58419 13.5552 2.37011 13.5552H9.7527C10.5412 13.5552 11.1825 12.9139 11.1825 12.1256V11.683H11.6251C12.4136 11.683 13.0551 11.0417 13.0551 10.253V2.87484C13.0551 2.0866 12.4136 1.44531 11.6251 1.44531ZM10.3075 12.1256C10.3075 12.4315 10.0586 12.6802 9.7527 12.6802H2.37011C2.06675 12.6802 1.81982 12.4315 1.81982 12.1256V4.74747C1.81982 4.44157 2.06679 4.19246 2.37011 4.19246H3.25496H9.7527C10.0586 4.19246 10.3075 4.44153 10.3075 4.74747V11.2454V12.1256ZM12.1801 10.253C12.1801 10.5589 11.9312 10.808 11.6251 10.808H11.1825V4.74747C11.1825 3.95879 10.5412 3.31746 9.75266 3.31746H3.69241V2.87484C3.69241 2.56894 3.93938 2.32027 4.2427 2.32027H11.6251C11.9312 2.32027 12.1801 2.56894 12.1801 2.87484V10.253Z" fill="url(#paint0_linear_147_18706)"/>
<defs>
<linearGradient id="paint0_linear_147_18706" x1="0.944824" y1="7.50027" x2="13.0551" y2="7.50027" gradientUnits="userSpaceOnUse">
<stop stop-color="#FFB778"/>
<stop offset="1" stop-color="#F1760B"/>
</linearGradient>
</defs>
</svg>
