<svg width="22" height="22" viewBox="0 0 22 22" fill="none" xmlns="http://www.w3.org/2000/svg">
<path d="M6.56 11.6599L5.78 13.9999C5.67385 14.3091 5.65695 14.6419 5.73123 14.9603C5.80551 15.2786 5.96797 15.5696 6.2 15.7999C6.43093 16.0309 6.72192 16.1927 7.04003 16.2669C7.35814 16.3411 7.69067 16.3249 8 16.2199L10.35 15.4399C10.4586 15.4017 10.5576 15.3403 10.64 15.2599L21.24 4.64989C21.5667 4.3219 21.7501 3.87782 21.7501 3.41489C21.7501 2.95195 21.5667 2.50788 21.24 2.17989L19.82 0.759887C19.492 0.433186 19.0479 0.249756 18.585 0.249756C18.1221 0.249756 17.678 0.433186 17.35 0.759887L6.74 11.3699C6.65959 11.4523 6.59815 11.5513 6.56 11.6599ZM18.41 1.81989C18.4579 1.77632 18.5203 1.75218 18.585 1.75218C18.6497 1.75218 18.7121 1.77632 18.76 1.81989L20.18 3.23989C20.2236 3.28776 20.2477 3.35016 20.2477 3.41489C20.2477 3.47962 20.2236 3.54202 20.18 3.58989L18.59 5.17989L16.82 3.40989L18.41 1.81989ZM7.2 14.4799L7.93 12.2999L15.76 4.46989L17.53 6.23989L9.7 14.0699L7.52 14.7999C7.47535 14.816 7.42704 14.8191 7.38071 14.8087C7.33438 14.7984 7.29195 14.7751 7.25839 14.7415C7.22483 14.7079 7.20151 14.6655 7.19117 14.6192C7.18083 14.5729 7.18389 14.5245 7.2 14.4799ZM21.75 9.47989V17.9999C21.75 18.9945 21.3549 19.9483 20.6517 20.6515C19.9484 21.3548 18.9946 21.7499 18 21.7499H4C3.00544 21.7499 2.05161 21.3548 1.34835 20.6515C0.645088 19.9483 0.25 18.9945 0.25 17.9999V3.99989C0.25 3.00533 0.645088 2.0515 1.34835 1.34824C2.05161 0.644975 3.00544 0.249887 4 0.249887H12.51C12.7089 0.249887 12.8997 0.328905 13.0403 0.469557C13.181 0.610209 13.26 0.800975 13.26 0.999887C13.26 1.1988 13.181 1.38956 13.0403 1.53022C12.8997 1.67087 12.7089 1.74989 12.51 1.74989H4C3.40326 1.74989 2.83097 1.98694 2.40901 2.4089C1.98705 2.83085 1.75 3.40315 1.75 3.99989V17.9999C1.75 18.5966 1.98705 19.1689 2.40901 19.5909C2.83097 20.0128 3.40326 20.2499 4 20.2499H18C18.5967 20.2499 19.169 20.0128 19.591 19.5909C20.0129 19.1689 20.25 18.5966 20.25 17.9999V9.48989C20.25 9.29097 20.329 9.10021 20.4697 8.95956C20.6103 8.8189 20.8011 8.73989 21 8.73989C21.1989 8.73989 21.3897 8.8189 21.5303 8.95956C21.671 9.10021 21.75 9.29097 21.75 9.48989V9.47989Z" fill="black"/>
</svg>
