<svg width="60" height="61" viewBox="0 0 60 61" fill="none" xmlns="http://www.w3.org/2000/svg">
<g filter="url(#filter0_i_276_62296)">
<rect y="0.5" width="60" height="60" rx="30" fill="black"/>
<rect x="0.5" y="1" width="59" height="59" rx="29.5" stroke="#78FFB6"/>
<path d="M23.2958 35.436C28.5102 37.471 32.9477 37.8674 37.9763 34.6999C37.9395 34.7552 36.9448 36.2288 34.329 36.9841C34.8816 37.7393 35.6369 38.6051 35.6369 38.6051C37.3132 38.6051 38.9527 38.1261 40.3711 37.2051C41.4763 36.4682 42.1026 35.1972 41.9737 33.8709C41.7526 31.6051 41.2184 29.3946 40.3895 27.2762C39.3395 24.5131 36.8158 22.5973 33.8869 22.3209C33.629 22.3025 33.4448 22.3025 33.3342 22.3025L33.0395 22.5972C36.4106 23.5551 38.0869 25.0472 38.1237 25.1025C32.9474 22.4867 26.8316 22.4499 21.6184 24.992C21.6184 24.992 23.2763 23.3525 26.9421 22.4867L26.7211 22.2656C26.3342 22.2656 25.9658 22.3025 25.579 22.3577C22.8711 22.8182 20.6053 24.6788 19.629 27.2393C18.7816 29.4498 18.229 31.7709 18.0263 34.1288C17.9158 35.3814 18.5053 36.6156 19.5369 37.3341C20.9 38.2367 22.5211 38.7156 24.1605 38.7156C24.1605 38.7156 24.8237 37.8498 25.4869 37.0761C23 36.3393 21.9869 34.8656 21.9684 34.8103L22.4364 35.0493C22.7162 35.1923 23.0031 35.3218 23.2958 35.436ZM26.1869 33.8341C24.9895 33.7972 24.05 32.7841 24.0869 31.5682C24.1237 30.4261 25.0448 29.5051 26.1869 29.4682C27.3842 29.5051 28.3237 30.5182 28.2869 31.7341C28.2316 32.8762 27.329 33.7972 26.1869 33.8341ZM33.7026 33.8341C32.5052 33.7972 31.5658 32.7841 31.6026 31.5682C31.6395 30.4261 32.5605 29.5051 33.7026 29.4682C34.9 29.5051 35.8395 30.5182 35.8026 31.7341C35.7658 32.8762 34.8447 33.7972 33.7026 33.8341Z" fill="white"/>
</g>
<defs>
<filter id="filter0_i_276_62296" x="0" y="0.5" width="60" height="60" filterUnits="userSpaceOnUse" color-interpolation-filters="sRGB">
<feFlood flood-opacity="0" result="BackgroundImageFix"/>
<feBlend mode="normal" in="SourceGraphic" in2="BackgroundImageFix" result="shape"/>
<feColorMatrix in="SourceAlpha" type="matrix" values="0 0 0 0 0 0 0 0 0 0 0 0 0 0 0 0 0 0 127 0" result="hardAlpha"/>
<feOffset dx="2" dy="2"/>
<feComposite in2="hardAlpha" operator="arithmetic" k2="-1" k3="1"/>
<feColorMatrix type="matrix" values="0 0 0 0 0.470588 0 0 0 0 1 0 0 0 0 0.713726 0 0 0 1 0"/>
<feBlend mode="normal" in2="shape" result="effect1_innerShadow_276_62296"/>
</filter>
</defs>
</svg>
