<svg width="60" height="61" viewBox="0 0 60 61" fill="none" xmlns="http://www.w3.org/2000/svg">
<g filter="url(#filter0_i_276_62291)">
<rect y="0.5" width="60" height="60" rx="30" fill="black"/>
<rect x="0.5" y="1" width="59" height="59" rx="29.5" stroke="#78FFB6"/>
<path d="M30 19.6001C24.2566 19.6001 19.6 24.2567 19.6 30.0001C19.6 35.214 23.4411 39.5196 28.4452 40.2718V32.7561H25.8721V30.0226H28.4452V28.2035C28.4452 25.1918 29.9125 23.8702 32.4154 23.8702C33.614 23.8702 34.2484 23.9594 34.5483 23.9993V26.3852H32.8409C31.7784 26.3852 31.4075 27.3932 31.4075 28.5285V30.0226H34.5214L34.0993 32.7561H31.4075V40.2935C36.4835 39.6054 40.4 35.2651 40.4 30.0001C40.4 24.2567 35.7434 19.6001 30 19.6001Z" fill="white"/>
</g>
<defs>
<filter id="filter0_i_276_62291" x="0" y="0.5" width="60" height="60" filterUnits="userSpaceOnUse" color-interpolation-filters="sRGB">
<feFlood flood-opacity="0" result="BackgroundImageFix"/>
<feBlend mode="normal" in="SourceGraphic" in2="BackgroundImageFix" result="shape"/>
<feColorMatrix in="SourceAlpha" type="matrix" values="0 0 0 0 0 0 0 0 0 0 0 0 0 0 0 0 0 0 127 0" result="hardAlpha"/>
<feOffset dx="2" dy="2"/>
<feComposite in2="hardAlpha" operator="arithmetic" k2="-1" k3="1"/>
<feColorMatrix type="matrix" values="0 0 0 0 0.470588 0 0 0 0 1 0 0 0 0 0.713726 0 0 0 1 0"/>
<feBlend mode="normal" in2="shape" result="effect1_innerShadow_276_62291"/>
</filter>
</defs>
</svg>
