<svg width="40" height="24" viewBox="0 0 40 24" fill="none" xmlns="http://www.w3.org/2000/svg">
<path d="M29 2H23C22.7347 2 22.4804 2.10536 22.2929 2.29289C22.1053 2.48043 22 2.73478 22 3C22 3.26522 22.1053 3.51957 22.2929 3.70711C22.4804 3.89464 22.7347 4 23 4H26.586L18.293 12.293C18.1974 12.3852 18.1213 12.4956 18.0689 12.6176C18.0164 12.7396 17.9889 12.8708 17.9877 13.0036C17.9866 13.1364 18.0119 13.2681 18.0621 13.391C18.1124 13.5139 18.1867 13.6255 18.2806 13.7194C18.3745 13.8133 18.4861 13.8875 18.609 13.9378C18.7319 13.9881 18.8636 14.0134 18.9964 14.0123C19.1291 14.0111 19.2604 13.9835 19.3824 13.9311C19.5044 13.8787 19.6147 13.8025 19.707 13.707L28 5.414V9C28 9.26522 28.1053 9.51957 28.2929 9.70711C28.4804 9.89464 28.7347 10 29 10C29.2652 10 29.5195 9.89464 29.7071 9.70711C29.8946 9.51957 30 9.26522 30 9V3C30 2.73478 29.8946 2.48043 29.7071 2.29289C29.5195 2.10536 29.2652 2 29 2Z" fill="white"/>
<path d="M27 10.588C26.7348 10.588 26.4804 10.6934 26.2929 10.8809C26.1054 11.0684 26 11.3228 26 11.588V18.751C25.9997 19.0822 25.8681 19.3997 25.6339 19.6339C25.3997 19.8681 25.0822 19.9997 24.751 20H13.249C12.9178 19.9997 12.6003 19.8681 12.3661 19.6339C12.1319 19.3997 12.0003 19.0822 12 18.751V7.249C12.0003 6.91783 12.1319 6.60029 12.3661 6.36612C12.6003 6.13194 12.9178 6.00026 13.249 6H19.471C19.7362 6 19.9906 5.89464 20.1781 5.70711C20.3656 5.51957 20.471 5.26522 20.471 5C20.471 4.73478 20.3656 4.48043 20.1781 4.29289C19.9906 4.10536 19.7362 4 19.471 4H13.249C12.3876 4.00106 11.5619 4.3437 10.9528 4.95278C10.3437 5.56186 10.0011 6.38764 10 7.249V18.749C10.0005 19.6107 10.3429 20.437 10.9521 21.0465C11.5612 21.656 12.3873 21.9989 13.249 22H24.749C25.6107 21.9995 26.437 21.6571 27.0465 21.0479C27.656 20.4388 27.9989 19.6127 28 18.751V11.588C28 11.3228 27.8946 11.0684 27.7071 10.8809C27.5196 10.6934 27.2652 10.588 27 10.588Z" fill="white"/>
</svg>
