<svg width="24" height="24" viewBox="0 0 24 24" fill="none" xmlns="http://www.w3.org/2000/svg">
<g clip-path="url(#clip0_147_15745)">
<path d="M12.9322 9.95933C12.9322 9.95933 12.9308 9.9582 12.9282 9.95605C12.9266 9.95478 12.9246 9.95309 12.922 9.95112C12.8427 9.88883 12.3068 9.49855 11.5838 9.71633C10.8329 9.94255 10.6465 10.97 11.1568 11.3702C11.4498 11.6 11.8906 11.7889 12.4848 11.999C13.8146 12.469 13.323 14.3444 11.9703 14.3534C11.4425 14.3569 11.1957 14.3234 10.7319 14.02" stroke="black" stroke-miterlimit="10" stroke-linecap="round" stroke-linejoin="round"/>
<path d="M12 8.70557V9.64691" stroke="black" stroke-miterlimit="10" stroke-linecap="round" stroke-linejoin="round"/>
<path d="M12 14.3535V15.2949" stroke="black" stroke-miterlimit="10" stroke-linecap="round" stroke-linejoin="round"/>
<path d="M12.0001 17.1773C14.8594 17.1773 17.1773 14.8594 17.1773 12.0001C17.1773 9.14071 14.8594 6.82275 12.0001 6.82275C9.14071 6.82275 6.82275 9.14071 6.82275 12.0001C6.82275 14.8594 9.14071 17.1773 12.0001 17.1773Z" stroke="black" stroke-miterlimit="10" stroke-linecap="round" stroke-linejoin="round"/>
<path d="M16.1771 8.94094H19.2953V10.8236L23.5313 7.05825L19.2953 3.29297V5.17561H13.6473V7.09073" stroke="black" stroke-miterlimit="10" stroke-linecap="round" stroke-linejoin="round"/>
<path d="M7.82288 15.0594H4.7047V13.1768L0.46875 16.9421L4.7047 20.7074V18.8247H10.3527V16.9096" stroke="black" stroke-miterlimit="10" stroke-linecap="round" stroke-linejoin="round"/>
</g>
<defs>
<clipPath id="clip0_147_15745">
<rect width="24" height="24" fill="white"/>
</clipPath>
</defs>
</svg>
