<svg width="25" height="24" viewBox="0 0 25 24" fill="none" xmlns="http://www.w3.org/2000/svg">
<path d="M23.75 8.99979C23.7506 9.09849 23.7317 9.19634 23.6943 9.28772C23.657 9.37909 23.602 9.46221 23.5325 9.53229L19.0325 14.0323C18.9624 14.1018 18.8793 14.1568 18.7879 14.1941C18.6966 14.2314 18.5987 14.2504 18.5 14.2498C18.4025 14.251 18.3057 14.2331 18.215 14.1973C18.0769 14.1405 17.9588 14.0438 17.876 13.9196C17.7931 13.7953 17.7493 13.6491 17.75 13.4998V11.2498H11C10.8011 11.2498 10.6103 11.1708 10.4697 11.0301C10.329 10.8895 10.25 10.6987 10.25 10.4998V7.49979C10.25 7.30087 10.329 7.11011 10.4697 6.96946C10.6103 6.8288 10.8011 6.74979 11 6.74979H17.75V4.49979C17.7506 4.35146 17.7952 4.20664 17.8781 4.08365C17.9611 3.96067 18.0786 3.86503 18.2159 3.80883C18.3531 3.75264 18.504 3.73841 18.6494 3.76795C18.7947 3.79749 18.9281 3.86947 19.0325 3.97479L23.5325 8.47479C23.6711 8.61448 23.7492 8.80303 23.75 8.99979ZM14 12.7498H7.25001V10.4998C7.24927 10.3517 7.20472 10.2072 7.12197 10.0844C7.03922 9.9616 6.92198 9.86605 6.78501 9.80979C6.64843 9.75235 6.49789 9.73666 6.3524 9.76469C6.20691 9.79272 6.07298 9.86322 5.96751 9.96729L1.46751 14.4673C1.398 14.5374 1.34301 14.6205 1.30568 14.7119C1.26836 14.8032 1.24944 14.9011 1.25001 14.9998C1.24944 15.0985 1.26836 15.1963 1.30568 15.2877C1.34301 15.3791 1.398 15.4622 1.46751 15.5323L5.96751 20.0323C6.03759 20.1018 6.12071 20.1568 6.21208 20.1941C6.30346 20.2314 6.40131 20.2504 6.50001 20.2498C6.5984 20.2523 6.696 20.2318 6.78501 20.1898C6.92198 20.1335 7.03922 20.038 7.12197 19.9152C7.20472 19.7924 7.24927 19.6479 7.25001 19.4998V17.2498H14C14.1989 17.2498 14.3897 17.1708 14.5303 17.0301C14.671 16.8895 14.75 16.6987 14.75 16.4998V13.4998C14.75 13.3009 14.671 13.1101 14.5303 12.9695C14.3897 12.8288 14.1989 12.7498 14 12.7498Z" fill="black"/>
</svg>
