<svg width="24" height="24" viewBox="0 0 24 24" fill="none" xmlns="http://www.w3.org/2000/svg">
<g clip-path="url(#clip0_305_2518)">
<path d="M14.48 4.15745C13.9191 3.59664 13.2778 3.13482 12.5739 2.78486C12.3959 2.6964 12.1801 2.76892 12.0916 2.94686C12.0032 3.12479 12.0757 3.3407 12.2536 3.42915C12.8877 3.74434 13.4656 4.16054 13.9712 4.66623C16.5277 7.22279 16.5277 11.3827 13.9712 13.9392C12.7327 15.1777 11.0861 15.8597 9.3347 15.8597C7.58321 15.8597 5.93664 15.1777 4.6982 13.9392C3.45971 12.7008 2.77768 11.0542 2.77768 9.30273C2.77768 7.55129 3.45971 5.90467 4.6982 4.66623C5.44534 3.91909 6.33071 3.37811 7.32962 3.05828C8.28301 2.75307 9.31182 2.66978 10.3046 2.81739C10.5014 2.84668 10.6842 2.71098 10.7134 2.51443C10.7425 2.31789 10.607 2.13489 10.4104 2.10568C9.3092 1.94195 8.16798 2.03434 7.1102 2.37301C6.0167 2.72307 5.00664 3.34014 4.18932 4.15745C2.815 5.53178 2.05811 7.35906 2.05811 9.30273C2.05811 11.2464 2.815 13.0737 4.18932 14.448C5.5637 15.8224 7.39098 16.5793 9.33465 16.5793C11.2782 16.5793 13.1056 15.8224 14.4799 14.448C17.3171 11.6109 17.3171 6.99456 14.48 4.15745Z" fill="white"/>
<path d="M23.4262 20.6866L17.131 14.3915C18.2494 12.6697 18.7691 10.605 18.5972 8.54353C18.4148 6.35512 17.4582 4.29328 15.9037 2.73778C14.1396 0.972703 11.8005 0.000375 9.31707 0C9.31646 0 9.31622 0 9.31561 0C6.83283 0 4.49372 0.971625 2.72958 2.73577C-0.901917 6.36731 -0.90187 12.2762 2.72963 15.9077C4.28508 17.4632 6.34716 18.4205 8.53608 18.6032C10.5984 18.7754 12.6631 18.2559 14.3854 17.1372L20.6805 23.4323C21.059 23.8108 21.5561 24 22.0533 24C22.5505 24 23.0477 23.8108 23.4262 23.4323C24.1831 22.6753 24.1831 21.4436 23.4262 20.6866ZM22.9174 22.9235C22.4409 23.4 21.6657 23.3999 21.1892 22.9235L14.6847 16.4189C14.6151 16.3493 14.523 16.3135 14.4302 16.3135C14.3587 16.3135 14.2868 16.3348 14.2246 16.3782C12.5913 17.5173 10.5928 18.0528 8.59599 17.8862C6.57643 17.7176 4.67377 16.8343 3.2385 15.399C-0.112542 12.048 -0.112589 6.59555 3.23841 3.24455C4.86675 1.6162 7.02488 0.719531 9.31561 0.719531C9.31604 0.719531 9.31655 0.719531 9.31697 0.719531C11.6081 0.719859 13.7666 1.61728 15.3948 3.24642C16.8293 4.68173 17.712 6.5842 17.8802 8.60334C18.0463 10.5956 17.5129 12.5903 16.3783 14.2216C16.1341 14.5236 15.4596 15.3316 15.1286 15.6186C14.9785 15.7487 14.9623 15.9759 15.0925 16.126C15.1636 16.2081 15.2638 16.2501 15.3645 16.2501C15.448 16.2501 15.5319 16.2212 15.6 16.1622C15.9048 15.8979 16.3952 15.3278 16.6931 14.9711L22.9174 21.1954C23.3938 21.6718 23.3938 22.447 22.9174 22.9235Z" fill="white"/>
</g>
<defs>
<clipPath id="clip0_305_2518">
<rect width="24" height="24" fill="white"/>
</clipPath>
</defs>
</svg>
