<svg width="60" height="61" viewBox="0 0 60 61" fill="none" xmlns="http://www.w3.org/2000/svg">
<g filter="url(#filter0_i_276_62281)">
<rect y="0.5" width="60" height="60" rx="30" fill="black"/>
<rect x="0.5" y="1" width="59" height="59" rx="29.5" stroke="#78FFB6"/>
<path fill-rule="evenodd" clip-rule="evenodd" d="M19.0536 30.2899C24.884 27.7497 28.7718 26.075 30.7171 25.2659C36.2713 22.9557 37.4255 22.5544 38.1777 22.5412C38.3431 22.5382 38.7131 22.5792 38.9527 22.7737C39.155 22.9379 39.2107 23.1596 39.2373 23.3153C39.264 23.471 39.2971 23.8256 39.2708 24.1026C38.9698 27.2651 37.6674 34.9396 37.0049 38.4816C36.7245 39.9804 36.1725 40.4829 35.6381 40.5321C34.4766 40.639 33.5947 39.7645 32.4698 39.0271C30.7095 37.8733 29.7151 37.155 28.0064 36.029C26.0318 34.7278 27.3119 34.0126 28.4372 32.8437C28.7317 32.5379 33.849 27.8833 33.9481 27.461C33.9605 27.4082 33.972 27.2114 33.855 27.1074C33.7381 27.0035 33.5655 27.039 33.4409 27.0673C33.2644 27.1074 30.4523 28.966 25.0048 32.6433C24.2066 33.1913 23.4836 33.4584 22.8359 33.4444C22.1218 33.429 20.7481 33.0406 19.727 32.7087C18.4745 32.3016 17.479 32.0863 17.5657 31.3949C17.6108 31.0347 18.1068 30.6664 19.0536 30.2899Z" fill="white"/>
</g>
<defs>
<filter id="filter0_i_276_62281" x="0" y="0.5" width="60" height="60" filterUnits="userSpaceOnUse" color-interpolation-filters="sRGB">
<feFlood flood-opacity="0" result="BackgroundImageFix"/>
<feBlend mode="normal" in="SourceGraphic" in2="BackgroundImageFix" result="shape"/>
<feColorMatrix in="SourceAlpha" type="matrix" values="0 0 0 0 0 0 0 0 0 0 0 0 0 0 0 0 0 0 127 0" result="hardAlpha"/>
<feOffset dx="2" dy="2"/>
<feComposite in2="hardAlpha" operator="arithmetic" k2="-1" k3="1"/>
<feColorMatrix type="matrix" values="0 0 0 0 0.470588 0 0 0 0 1 0 0 0 0 0.713726 0 0 0 1 0"/>
<feBlend mode="normal" in2="shape" result="effect1_innerShadow_276_62281"/>
</filter>
</defs>
</svg>
