<svg width="60" height="61" viewBox="0 0 60 61" fill="none" xmlns="http://www.w3.org/2000/svg">
<g filter="url(#filter0_i_276_62270)">
<rect y="0.5" width="60" height="60" rx="30" fill="black"/>
<rect x="0.5" y="1" width="59" height="59" rx="29.5" stroke="#78FFB6"/>
<g clip-path="url(#clip0_276_62270)">
<path d="M30.9289 42.4858C32.7642 42.225 34.3731 40.3095 35.3855 37.4807C33.922 37.1529 32.4285 36.977 30.9289 36.9561V42.4858Z" fill="white"/>
<path d="M33.861 42.0358C33.9695 42.0044 34.0776 41.9728 34.1848 41.938C34.2753 41.9089 34.3645 41.8775 34.4538 41.8463C34.5593 41.8098 34.6644 41.7723 34.7692 41.7325C34.8584 41.6986 34.9468 41.6626 35.0354 41.6266C35.1376 41.5836 35.2396 41.5409 35.3405 41.498C35.4287 41.4592 35.5162 41.4186 35.6038 41.3777C35.7028 41.331 35.8015 41.2835 35.8993 41.2341C35.9851 41.1903 36.0708 41.1457 36.1567 41.0998C36.2528 41.0483 36.3483 40.9957 36.4432 40.9417C36.529 40.8931 36.6118 40.8443 36.6953 40.7941C36.7883 40.7369 36.8809 40.6797 36.9728 40.6225C37.0551 40.5702 37.1372 40.517 37.2183 40.4621C37.3088 40.4012 37.398 40.3377 37.4868 40.2742C37.5666 40.2171 37.646 40.1601 37.7239 40.1027C37.8097 40.0365 37.8977 39.968 37.9838 39.8993C38.0602 39.8384 38.1365 39.7779 38.2116 39.7153C38.2973 39.644 38.3794 39.5703 38.4626 39.4966C38.5354 39.4319 38.6087 39.3678 38.6799 39.3014C38.7618 39.225 38.8416 39.1458 38.9214 39.0673C38.9905 38.999 39.0605 38.9318 39.1281 38.8618C39.1407 38.8488 39.1526 38.8348 39.1656 38.8214C38.2301 38.3382 37.2447 37.9589 36.2266 37.6904C35.6972 39.3789 34.7549 40.909 33.4853 42.1418C33.5201 42.1328 33.5549 42.1254 33.5896 42.1164C33.6814 42.0907 33.7714 42.0624 33.861 42.0358Z" fill="white"/>
<path d="M42.5 30.939H37.3572C37.3377 32.947 37.0463 34.9432 36.4911 36.8731C37.6233 37.1755 38.716 37.6103 39.7464 38.1685C41.4382 36.1294 42.4066 33.5871 42.5 30.939Z" fill="white"/>
<path d="M30.9289 30.0809H36.4993C36.4775 28.1439 36.1933 26.2187 35.6549 24.3579C34.1038 24.7116 32.5196 24.9006 30.9289 24.9215V30.0809Z" fill="white"/>
<path d="M30.9289 18.5337V24.0634C32.4285 24.0423 33.922 23.8665 35.3855 23.5388C34.3731 20.7099 32.7642 18.7944 30.9289 18.5337Z" fill="white"/>
<path d="M30.9289 36.0984C32.5196 36.1196 34.1038 36.3085 35.6549 36.6622C36.1933 34.8014 36.4775 32.876 36.4993 30.939H30.9289V36.0984Z" fill="white"/>
<path d="M39.7464 22.8516C38.716 23.4097 37.6233 23.8445 36.4911 24.1469C37.0463 26.0769 37.3377 28.073 37.3572 30.0811H42.5C42.4064 27.4332 41.438 24.8908 39.7464 22.8516Z" fill="white"/>
<path d="M39.1669 22.2007C39.1543 22.1879 39.1424 22.1741 39.13 22.1609C39.0622 22.0909 38.9918 22.0235 38.9227 21.9554C38.8431 21.8769 38.7637 21.7975 38.6816 21.7213C38.6106 21.6551 38.5371 21.5925 38.4642 21.5265C38.3811 21.4528 38.2979 21.3784 38.2125 21.3072C38.1383 21.2446 38.0623 21.1847 37.9869 21.1246C37.901 21.0551 37.8131 20.986 37.7247 20.9196C37.6472 20.8611 37.5687 20.8046 37.4897 20.748C37.4001 20.6835 37.31 20.6192 37.2187 20.5579C37.1385 20.5038 37.057 20.4511 36.9756 20.3993C36.8828 20.3396 36.7902 20.2812 36.6957 20.2247C36.613 20.175 36.5295 20.126 36.4457 20.0785C36.3498 20.0236 36.2536 19.9704 36.1567 19.9185C36.0708 19.8755 35.9851 19.8288 35.8993 19.7859C35.8006 19.7361 35.7011 19.6881 35.5991 19.641C35.5133 19.6001 35.4261 19.5603 35.3378 19.5216C35.2362 19.4766 35.1336 19.4359 35.0312 19.393C34.9428 19.357 34.8548 19.3214 34.7656 19.2874C34.6615 19.2477 34.5559 19.2104 34.4504 19.1739C34.3612 19.1425 34.2719 19.1113 34.1815 19.082C34.0742 19.0472 33.967 19.0156 33.8568 18.9838C33.7676 18.9576 33.678 18.931 33.5877 18.9071C33.5532 18.8977 33.518 18.8904 33.4832 18.8813C34.7528 20.1141 35.6949 21.644 36.2245 23.3327C37.2436 23.0642 38.2305 22.6847 39.1669 22.2007Z" fill="white"/>
<path d="M18.5 30.0811H23.6429C23.6624 28.073 23.9537 26.0769 24.5087 24.1469C23.3767 23.8447 22.2841 23.4099 21.2537 22.8516C19.5618 24.8906 18.5934 27.4332 18.5 30.0811Z" fill="white"/>
<path d="M30.0711 42.4858V36.9561C28.5715 36.9772 27.0781 37.1529 25.6145 37.4807C26.6267 40.3095 28.2358 42.225 30.0711 42.4858Z" fill="white"/>
<path d="M30.0711 30.939H24.5007C24.5225 32.876 24.8065 34.8014 25.3452 36.6622C26.8963 36.3083 28.4802 36.1193 30.0711 36.0984V30.939Z" fill="white"/>
<path d="M30.0711 18.5337C28.2358 18.7944 26.6267 20.7099 25.6145 23.5388C27.0781 23.8668 28.5715 24.0425 30.0711 24.0634V18.5337Z" fill="white"/>
<path d="M30.0711 24.9215C28.4804 24.9006 26.8963 24.7116 25.3452 24.3579C24.8065 26.2187 24.5225 28.1439 24.5007 30.0809H30.0711V24.9215Z" fill="white"/>
<path d="M27.5135 18.8809C27.4787 18.8899 27.4439 18.8972 27.4092 18.9062C27.3183 18.9305 27.2286 18.9575 27.1382 18.9837C27.0305 19.0151 26.9237 19.0467 26.8156 19.0811C26.7245 19.1106 26.6349 19.142 26.5453 19.1732C26.4403 19.2103 26.3352 19.2472 26.2313 19.2865C26.1417 19.3209 26.0533 19.3565 25.9645 19.3929C25.8625 19.4359 25.7603 19.4788 25.6596 19.5215C25.5712 19.5603 25.4838 19.6009 25.3963 19.6417C25.2972 19.6884 25.1986 19.736 25.1008 19.7854C25.0149 19.8292 24.929 19.874 24.8434 19.9197C24.7473 19.9712 24.652 20.024 24.5573 20.078C24.4714 20.126 24.387 20.1752 24.3043 20.2254C24.2111 20.2816 24.1189 20.3396 24.0272 20.397C23.9447 20.4497 23.8628 20.5029 23.7818 20.5578C23.6913 20.6188 23.6021 20.6822 23.5133 20.7457C23.4335 20.8028 23.3541 20.8598 23.276 20.9174C23.1882 20.9834 23.1044 21.0521 23.0161 21.1206C22.9398 21.1815 22.863 21.242 22.7884 21.3051C22.7025 21.3759 22.6211 21.4492 22.5383 21.5225C22.465 21.5878 22.3911 21.6513 22.3195 21.7189C22.238 21.7949 22.1586 21.8739 22.079 21.9522C22.0099 22.0205 21.9396 22.0879 21.8717 22.1581C21.8593 22.1711 21.8474 22.1853 21.8344 22.1985C22.7698 22.6819 23.7554 23.0612 24.7734 23.3297C25.3029 21.6421 26.2445 20.113 27.5135 18.8809Z" fill="white"/>
<path d="M22.0772 39.0644C22.157 39.1429 22.2363 39.2223 22.3182 39.2988C22.3894 39.3647 22.4627 39.4273 22.5358 39.4933C22.619 39.5673 22.7021 39.6414 22.7876 39.7126C22.8617 39.7748 22.9373 39.8349 23.0131 39.8952C23.099 39.9648 23.1847 40.0339 23.2755 40.1007C23.3528 40.1587 23.4314 40.2148 23.5099 40.2724C23.5995 40.3367 23.69 40.401 23.7813 40.4628C23.8615 40.5168 23.943 40.5696 24.0245 40.6215C24.1173 40.681 24.2098 40.7395 24.3043 40.796C24.387 40.8459 24.4706 40.8947 24.5544 40.9424C24.6503 40.9973 24.7464 41.0505 24.8434 41.1022C24.929 41.1451 25.0149 41.1918 25.1008 41.2348C25.1994 41.2846 25.2989 41.3326 25.4009 41.3799C25.4868 41.4203 25.5739 41.4601 25.6623 41.4991C25.7638 41.5441 25.8663 41.5847 25.9689 41.6277C26.0573 41.6637 26.1452 41.6993 26.2345 41.7332C26.3385 41.7732 26.4441 41.8105 26.5497 41.847C26.6389 41.8782 26.7281 41.9096 26.8186 41.9387C26.9258 41.9735 27.033 42.0053 27.1432 42.0369C27.2324 42.0631 27.322 42.0897 27.4121 42.1138C27.4469 42.1232 27.4821 42.1305 27.5168 42.1395C26.2472 40.9066 25.3052 39.3767 24.7755 37.688C23.7575 37.9567 22.7719 38.336 21.8365 38.8196C21.8491 38.8323 21.861 38.8462 21.8736 38.8594C21.9379 38.9289 22.0072 38.9963 22.0772 39.0644Z" fill="white"/>
<path d="M21.2537 38.1685C22.2841 37.6103 23.3767 37.1755 24.5087 36.8731C23.9537 34.9432 23.6624 32.947 23.6429 30.939H18.5C18.5936 33.5869 19.5618 36.1292 21.2537 38.1685Z" fill="white"/>
</g>
</g>
<defs>
<filter id="filter0_i_276_62270" x="0" y="0.5" width="60" height="60" filterUnits="userSpaceOnUse" color-interpolation-filters="sRGB">
<feFlood flood-opacity="0" result="BackgroundImageFix"/>
<feBlend mode="normal" in="SourceGraphic" in2="BackgroundImageFix" result="shape"/>
<feColorMatrix in="SourceAlpha" type="matrix" values="0 0 0 0 0 0 0 0 0 0 0 0 0 0 0 0 0 0 127 0" result="hardAlpha"/>
<feOffset dx="2" dy="2"/>
<feComposite in2="hardAlpha" operator="arithmetic" k2="-1" k3="1"/>
<feColorMatrix type="matrix" values="0 0 0 0 0.470588 0 0 0 0 1 0 0 0 0 0.713726 0 0 0 1 0"/>
<feBlend mode="normal" in2="shape" result="effect1_innerShadow_276_62270"/>
</filter>
<clipPath id="clip0_276_62270">
<rect width="24" height="24" fill="white" transform="translate(18.5 18.5)"/>
</clipPath>
</defs>
</svg>
