<svg width="60" height="61" viewBox="0 0 60 61" fill="none" xmlns="http://www.w3.org/2000/svg">
<g filter="url(#filter0_i_276_62273)">
<rect y="0.5" width="60" height="60" rx="30" fill="black"/>
<rect x="0.5" y="1" width="59" height="59" rx="29.5" stroke="#78FFB6"/>
<path d="M38.0076 38.8778L31.3062 29.1422L30.5485 28.0412L25.755 21.0771L25.3577 20.5H19.4674L20.9041 22.5877L27.2777 31.8484L28.0355 32.9482L33.1567 40.3889L33.5539 40.9655H39.4442L38.0076 38.8778ZM34.2539 39.633L28.9334 31.9027L28.1756 30.8023L22.0019 21.8323H24.6576L29.6504 29.0865L30.4082 30.1869L36.9096 39.633H34.2539Z" fill="white"/>
<path d="M28.1758 30.8022L28.9336 31.9028L28.0355 32.9481L21.1439 40.9654H19.4444L27.2778 31.8481L28.1758 30.8022Z" fill="white"/>
<path d="M38.7351 20.5L31.3065 29.1424L30.4084 30.1871L29.6507 29.0865L30.5487 28.0412L35.5811 22.1841L37.0358 20.5H38.7351Z" fill="white"/>
</g>
<defs>
<filter id="filter0_i_276_62273" x="0" y="0.5" width="60" height="60" filterUnits="userSpaceOnUse" color-interpolation-filters="sRGB">
<feFlood flood-opacity="0" result="BackgroundImageFix"/>
<feBlend mode="normal" in="SourceGraphic" in2="BackgroundImageFix" result="shape"/>
<feColorMatrix in="SourceAlpha" type="matrix" values="0 0 0 0 0 0 0 0 0 0 0 0 0 0 0 0 0 0 127 0" result="hardAlpha"/>
<feOffset dx="2" dy="2"/>
<feComposite in2="hardAlpha" operator="arithmetic" k2="-1" k3="1"/>
<feColorMatrix type="matrix" values="0 0 0 0 0.470588 0 0 0 0 1 0 0 0 0 0.713726 0 0 0 1 0"/>
<feBlend mode="normal" in2="shape" result="effect1_innerShadow_276_62273"/>
</filter>
</defs>
</svg>
