<svg width="60" height="61" viewBox="0 0 60 61" fill="none" xmlns="http://www.w3.org/2000/svg">
<g filter="url(#filter0_i_276_62285)">
<rect y="0.5" width="60" height="60" rx="30" fill="black"/>
<rect x="0.5" y="1" width="59" height="59" rx="29.5" stroke="#78FFB6"/>
<path d="M41.6472 24.7739C41.3727 23.7543 40.5688 22.9503 39.5492 22.6758C37.6864 22.166 30.2355 22.166 30.2355 22.166C30.2355 22.166 22.7845 22.166 20.9217 22.6562C19.9217 22.9307 19.0982 23.7543 18.8237 24.7739C18.3335 26.6366 18.3335 30.4993 18.3335 30.4993C18.3335 30.4993 18.3335 34.3817 18.8237 36.2248C19.0982 37.2444 19.9021 38.0484 20.9217 38.3229C22.8041 38.8327 30.2355 38.8327 30.2355 38.8327C30.2355 38.8327 37.6864 38.8327 39.5492 38.3425C40.5688 38.068 41.3727 37.2641 41.6472 36.2444C42.1374 34.3817 42.1374 30.519 42.1374 30.519C42.1374 30.519 42.157 26.6366 41.6472 24.7739Z" fill="white"/>
<path d="M27.8627 34.0669L34.0587 30.4983L27.8627 26.9297V34.0669Z" fill="#1A1919"/>
</g>
<defs>
<filter id="filter0_i_276_62285" x="0" y="0.5" width="60" height="60" filterUnits="userSpaceOnUse" color-interpolation-filters="sRGB">
<feFlood flood-opacity="0" result="BackgroundImageFix"/>
<feBlend mode="normal" in="SourceGraphic" in2="BackgroundImageFix" result="shape"/>
<feColorMatrix in="SourceAlpha" type="matrix" values="0 0 0 0 0 0 0 0 0 0 0 0 0 0 0 0 0 0 127 0" result="hardAlpha"/>
<feOffset dx="2" dy="2"/>
<feComposite in2="hardAlpha" operator="arithmetic" k2="-1" k3="1"/>
<feColorMatrix type="matrix" values="0 0 0 0 0.470588 0 0 0 0 1 0 0 0 0 0.713726 0 0 0 1 0"/>
<feBlend mode="normal" in2="shape" result="effect1_innerShadow_276_62285"/>
</filter>
</defs>
</svg>
